<svg width="23" height="25" viewBox="0 0 23 25" fill="none" xmlns="http://www.w3.org/2000/svg">
<path d="M17.1336 6.16146H20.7389C20.957 6.16167 21.1672 6.24282 21.3288 6.38918C21.4905 6.53553 21.592 6.73668 21.6138 6.95365L22.1508 12.3229H20.3798L19.9397 7.92188H17.1336V10.5625C17.1336 10.7959 17.0408 11.0198 16.8758 11.1849C16.7107 11.35 16.4868 11.4427 16.2534 11.4427C16.0199 11.4427 15.796 11.35 15.631 11.1849C15.4659 11.0198 15.3731 10.7959 15.3731 10.5625V7.92188H8.33148V10.5625C8.33148 10.7959 8.23874 11.0198 8.07367 11.1849C7.9086 11.35 7.68472 11.4427 7.45127 11.4427C7.21782 11.4427 6.99394 11.35 6.82887 11.1849C6.6638 11.0198 6.57106 10.7959 6.57106 10.5625V7.92188H3.7632L2.35486 22.0052H11.8523V23.7656H1.38135C1.25841 23.7655 1.13686 23.7396 1.02453 23.6897C0.912198 23.6397 0.811577 23.5668 0.729151 23.4756C0.646725 23.3843 0.584321 23.2769 0.54596 23.1601C0.5076 23.0433 0.494132 22.9197 0.506426 22.7974L2.0908 6.95365C2.11261 6.73668 2.21417 6.53553 2.37581 6.38918C2.53746 6.24282 2.74767 6.16167 2.96573 6.16146H6.57106V5.54707C6.57106 2.49451 8.92298 0 11.8523 0C14.7816 0 17.1336 2.49451 17.1336 5.54707V6.16322V6.16146ZM15.3731 6.16146V5.54707C15.3731 3.44514 13.7852 1.76042 11.8523 1.76042C9.91937 1.76042 8.33148 3.44514 8.33148 5.54707V6.16322H15.3731V6.16146ZM20.9132 19.259C20.9935 19.1716 21.0906 19.1014 21.1987 19.0525C21.3069 19.0036 21.4238 18.9771 21.5424 18.9746C21.661 18.972 21.7789 18.9935 21.8891 19.0377C21.9992 19.0819 22.0992 19.1479 22.1832 19.2317C22.2672 19.3156 22.3333 19.4156 22.3777 19.5256C22.422 19.6357 22.4436 19.7536 22.4413 19.8722C22.4389 19.9908 22.4126 20.1078 22.3638 20.216C22.3151 20.3242 22.245 20.4214 22.1578 20.5018L18.637 24.0226C18.4719 24.1877 18.248 24.2804 18.0147 24.2804C17.7812 24.2804 17.5574 24.1877 17.3923 24.0226L13.8715 20.5018C13.7874 20.4206 13.7204 20.3235 13.6743 20.2161C13.6281 20.1087 13.6038 19.9932 13.6028 19.8763C13.6018 19.7595 13.6241 19.6436 13.6683 19.5354C13.7126 19.4272 13.778 19.3289 13.8606 19.2463C13.9432 19.1636 14.0415 19.0983 14.1497 19.054C14.2579 19.0098 14.3738 18.9875 14.4906 18.9885C14.6075 18.9895 14.723 19.0138 14.8304 19.0599C14.9378 19.1061 15.0349 19.1731 15.1161 19.2572L17.1336 21.2764V14.9635C17.1336 14.7301 17.2263 14.5062 17.3914 14.3411C17.5564 14.1761 17.7803 14.0833 18.0138 14.0833C18.2472 14.0833 18.4711 14.1761 18.6362 14.3411C18.8012 14.5062 18.894 14.7301 18.894 14.9635V21.2764L20.9132 19.2572V19.259Z" fill="#F2C8ED"/>
</svg>
