<svg width="422" height="132" viewBox="0 0 422 132" fill="none" xmlns="http://www.w3.org/2000/svg">
<path d="M2.46582 126L8.5 103L15.4515 126L19.447 119.5L25.4404 126L32 91.5L40.9233 126H53.4095L69.8912 91.5L81 56L90.868 78L104.353 85L115 61L123.332 89L135.818 85L144.309 56L150.802 65.5L162.5 16L171 27H181.767L190.258 18.5L195.253 4.50002L201.246 18.5L213.732 27L227.217 73.5L236.707 34.5L247.695 23L259.182 34.5L267.672 16L273.166 27L292 56L305.131 34.5L317.617 18.5L335.597 78L352 109L358.572 65.5L364.565 78L375 61L385.5 109L396 99L404.521 65.5L412.512 85L420.004 56" stroke="#00FF62" stroke-width="3"/>
<path d="M8 106.5L1.4668 130.5L421.502 131.5V56.5L413.012 89.5L404.022 68.5L395.5 99L383.045 106.5L374 59.5L363.566 79L358.572 68.5L352 106.5L334.099 79L317.118 21.5L306.13 35.5L291 59.5L272.167 28L268 8.49998L259.681 37L247.694 25L238.205 35L227.717 78L212.234 28L200.247 19.5L195.252 8.49998L191.756 19L181.767 29H168L164.004 18L151.801 69L144.808 59.5L136.817 86L122.833 90.5L114.5 63L104.852 86.5L89.869 79L82 56.5L71.3895 92L54.4082 127.5H40.4237L32 89.5L25.4403 127.5L19.4469 122L15.4513 128L8 106.5Z" fill="url(#paint0_linear_1_217)" stroke="#00FF62"/>
<defs>
<linearGradient id="paint0_linear_1_217" x1="212.234" y1="-4.00001" x2="211.233" y2="128.5" gradientUnits="userSpaceOnUse">
<stop stop-color="#00FF62"/>
<stop offset="1" stop-color="#A9DFD8" stop-opacity="0.01"/>
</linearGradient>
</defs>
</svg>
