<svg width="422" height="133" viewBox="0 0 422 133" fill="none" xmlns="http://www.w3.org/2000/svg">
<path d="M2.46582 127L6.96085 117L15.4515 127L19.447 120.5L25.4404 127L31.4338 120.5L40.9233 127H53.4095L69.8912 92.5L82.3774 24L90.868 79L104.353 86L112.844 79L123.332 90L135.818 86L144.309 57L150.802 66.5L162.289 1.00002L167.783 17L181.767 28L190.258 19.5L195.253 5.50001L201.246 19.5L213.732 28L227.217 74.5L236.707 35.5L247.695 24L259.182 35.5L267.672 17L273.166 28L288.15 38.5L305.131 35.5L317.617 19.5L335.597 79L348.083 86L358.572 66.5L364.565 79L377.551 86L383.045 104L391.036 82L404.521 66.5L412.512 86L420.004 57" stroke="#00B3FF" stroke-width="3"/>
<path d="M7.46017 119.5L1.4668 131.5L421.502 132.5V57.5L413.012 90.5L404.022 69.5L392.534 82.5L383.045 107.5L376.552 87L363.566 80L358.572 69.5L348.583 87.5L334.099 80L317.118 22.5L306.13 36.5L287.65 40L272.167 29L267.672 20.5L259.681 38L247.694 26L238.205 36L227.717 79L212.234 29L200.247 20.5L195.252 9.49998L191.756 20L181.767 30L166.784 18L162.788 6.99998L151.801 70L144.808 60.5L136.817 87L122.833 91.5L112.844 81L104.852 87.5L89.869 80L82.3773 32.5L71.3895 93L54.4082 128.5H40.4237L31.4336 122L25.4403 128.5L19.4469 123L15.4513 129L7.46017 119.5Z" fill="url(#paint0_linear_1_217)" stroke="#00B3FF"/>
<defs>
<linearGradient id="paint0_linear_1_217" x1="212.234" y1="-3.00001" x2="211.233" y2="129.5" gradientUnits="userSpaceOnUse">
<stop stop-color="#00B2FF"/>
<stop offset="1" stop-color="#A9DFD8" stop-opacity="0.01"/>
</linearGradient>
</defs>
</svg>
