<svg width="422" height="125" viewBox="0 0 422 125" fill="none" xmlns="http://www.w3.org/2000/svg">
<path d="M2.46582 119L8.5 96L15.4515 119L18.5 78L25.4404 119L32 98.5L41 87.5L53.4095 119L73.5 40L85.5 96L90.868 71L104.353 78L115 54L123.332 82L130.5 34.5L145.5 78L152 63.5L163.5 54L174 5.5L181.767 20L190.258 11.5L201.246 27.5V11.5L213.732 20L227.217 66.5L236.707 27.5L248.5 63.5L259.182 27.5L267.672 40L273.166 5.5L292 49L303 11.5L315 40L327 30.5L344 40L360.5 92L364.565 71L375 54L383 98.5L392.5 71L407 82L411.5 34.5L420.004 49" stroke="#A9DFD8" stroke-width="3"/>
<path d="M8 99.5L1.4668 123.5L421.502 124.5V49.5L410.5 35L405.5 83.5L393.5 71L383.045 99.5L374 52.5L363.566 72L360 88.5L343.5 41.5L326 30L314 38.5L303.5 14.5L291 52.5L272.5 5.5L267 41.5L259.681 30L248 58.5L238.205 28L227.717 71L212.234 21L200.247 12.5V30L191.756 12L181.767 22L173 5.5L163 52.5L151.801 62L146.5 79.5L130 35L122.833 83.5L114.5 56L104.852 79.5L89.869 72L85 95.5L71.5 41.5L54.4082 120.5L42 88.5L31.5 99.5L25.4403 120.5L19 77L15.4513 121L8 99.5Z" fill="url(#paint0_linear_1_217)" stroke="#A9DFD8"/>
<defs>
<linearGradient id="paint0_linear_1_217" x1="212.234" y1="-11" x2="211.233" y2="121.5" gradientUnits="userSpaceOnUse">
<stop stop-color="#A9DFD8"/>
<stop offset="1" stop-color="#A9DFD8" stop-opacity="0.01"/>
</linearGradient>
</defs>
</svg>
